<svg xmlns="http://www.w3.org/2000/svg" width="26.335" height="11.334" viewBox="0 0 26.335 11.334">
  <defs>
    <style>
      .cls-1, .cls-3 {
        fill: #777;
      }

      .cls-2, .cls-3 {
        stroke: none;
      }
    </style>
  </defs>
  <g id="合体_6" data-name="合体 6" class="cls-1">
    <path class="cls-2" d="M 13.32879829406738 10.83448219299316 C 13.28729820251465 10.83448219299316 13.24533843994141 10.83295249938965 13.20406818389893 10.82993221282959 L 13.16759872436523 10.82726192474365 L 13.13111877441406 10.82993221282959 C 13.08985805511475 10.83295249938965 13.0478982925415 10.83448219299316 13.00640869140625 10.83448219299316 C 12.6680383682251 10.83448219299316 12.34193801879883 10.73276233673096 12.11172866821289 10.55541229248047 L 0.8023483753204346 1.836492300033569 C 0.6073483824729919 1.686232209205627 0.5000084042549133 1.498472213745117 0.5000084042549133 1.307732224464417 C 0.5000084042549133 1.116992235183716 0.6073483824729919 0.9292322397232056 0.8022484183311462 0.7790522575378418 C 1.032408356666565 0.6017022728919983 1.358388423919678 0.4999922513961792 1.69657838344574 0.4999922513961792 C 2.034778356552124 0.4999922513961792 2.36076831817627 0.6017122864723206 2.590948343276978 0.7790622711181641 L 12.86207866668701 8.697542190551758 L 13.1673583984375 8.932902336120605 L 13.47263813018799 8.697542190551758 L 23.7439079284668 0.7789722681045532 C 23.97395896911621 0.6017122864723206 24.30000877380371 0.5000022649765015 24.63836860656738 0.5000022649765015 C 24.97661781311035 0.5000022649765015 25.30244827270508 0.6016722917556763 25.53230857849121 0.7789322733879089 C 25.72736930847168 0.9292322397232056 25.83470916748047 1.116992235183716 25.83470916748047 1.307732224464417 C 25.83470916748047 1.498472213745117 25.72736930847168 1.686232209205627 25.53246879577637 1.836412310600281 L 14.22282886505127 10.55551242828369 C 13.99291801452637 10.73282241821289 13.66708850860596 10.83448219299316 13.32879829406738 10.83448219299316 Z"/>
    <path class="cls-3" d="M 1.696578979492188 0.9999923706054688 C 1.466598510742188 0.9999923706054688 1.251869201660156 1.063821792602539 1.107427597045898 1.175122261047363 C 1.02625846862793 1.237651824951172 1.000007629394531 1.291472434997559 1.000007629394531 1.307732582092285 C 1.000007629394531 1.323992729187012 1.02625846862793 1.377812385559082 1.107627868652344 1.440502166748047 L 12.41687870025635 10.15932273864746 C 12.56136798858643 10.27064228057861 12.77623844146729 10.33448219299316 13.00640869140625 10.33448219299316 C 13.0357780456543 10.33448219299316 13.06547832489014 10.33340263366699 13.09468841552734 10.33126258850098 L 13.16761875152588 10.32593250274658 L 13.2405481338501 10.33126258850098 C 13.26971817016602 10.33340263366699 13.29940795898438 10.33448219299316 13.32879829406738 10.33448219299316 C 13.55878829956055 10.33448219299316 13.77332878112793 10.270751953125 13.91754817962646 10.15952205657959 L 25.2272891998291 1.440341949462891 C 25.30845832824707 1.377812385559082 25.33470916748047 1.323992729187012 25.33470916748047 1.307732582092285 C 25.33470916748047 1.291472434997559 25.30845832824707 1.237651824951172 25.22696876525879 1.174872398376465 C 25.0828685760498 1.063742637634277 24.86832809448242 1.000001907348633 24.63836860656738 1.000001907348633 C 24.40823745727539 1.000001907348633 24.19341850280762 1.063821792602539 24.0491886138916 1.174962043762207 L 13.77791881561279 9.093532562255859 L 13.1673583984375 9.564242362976074 L 12.55679798126221 9.093532562255859 L 2.285768508911133 1.175122261047363 C 2.141319274902344 1.063821792602539 1.926568984985352 0.9999923706054688 1.696578979492188 0.9999923706054688 M 1.696582794189453 -1.049041748046875e-05 C 2.130653381347656 -1.049041748046875e-05 2.564727783203125 0.1276569366455078 2.8961181640625 0.3829917907714844 L 13.1673583984375 8.301562309265137 L 23.43862915039063 0.3829917907714844 C 23.76998901367188 0.1276626586914063 24.2042179107666 1.9073486328125e-06 24.63836860656738 1.9073486328125e-06 C 25.07250785827637 1.9073486328125e-06 25.50655746459961 0.1276626586914063 25.83764839172363 0.3829917907714844 C 26.50039863586426 0.8936624526977539 26.50039863586426 1.721802711486816 25.83764839172363 2.23247241973877 L 14.52810859680176 10.95149230957031 C 14.19705104827881 11.20682048797607 13.76295566558838 11.33448314666748 13.3287935256958 11.33448314666748 C 13.2750072479248 11.33448314666748 13.22118949890137 11.33252239227295 13.16759872436523 11.3286018371582 C 13.11398220062256 11.33252429962158 13.06022548675537 11.33448314666748 13.00640964508057 11.33448314666748 C 12.57227516174316 11.33448314666748 12.13796806335449 11.20680332183838 11.80657863616943 10.95149230957031 L 0.4970684051513672 2.23247241973877 C -0.1656818389892578 1.721802711486816 -0.1656818389892578 0.8936624526977539 0.4970684051513672 0.3829917907714844 C 0.8284435272216797 0.1276569366455078 1.262510299682617 -1.049041748046875e-05 1.696582794189453 -1.049041748046875e-05 Z"/>
  </g>
</svg>
